<svg xmlns:xlink="http://www.w3.org/1999/xlink" id="loading-logo-full" viewBox="0 0 134 190" fill="none" xmlns="http://www.w3.org/2000/svg" role="img" style="opacity: 1; visibility: inherit;" width="500"  height="708.96" ><title fill="none">Proto Logo</title>
<path d="M5.06845 23.42L51.3466 3.88799C54.0406 2.75595 57.1399 4.0374 58.2643 6.7497C58.2643 6.76119 58.27 6.76694 58.2757 6.77843C58.544 7.43352 58.681 8.13458 58.681 8.84139V181.555C58.7152 186.13 55.0566 189.865 50.5133 189.899C48.7439 189.911 47.0201 189.353 45.5932 188.296L3.38467 163.879C1.2557 162.305 0 159.799 0 157.139V31.1202C0 27.7586 1.99199 24.7245 5.06845 23.42Z" fill="url(&quot;#paint0_linear_288_9328&quot;)"></path>
<path d="M0 28.8902V32.8553C0.171231 30.6256 2.11185 28.9592 4.32645 29.1316C4.99996 29.1833 5.65634 29.4074 6.22141 29.7809L69.3373 71.3045C71.7859 73.3732 75.3133 75.3902 75.3133 80.1941V128.05C75.3133 133.946 81.6089 138.399 87.1282 135.664L129.342 114.747C132.208 113.311 134.011 110.357 134 107.133V53.0424C134 49.4451 131.546 46.1295 128.56 44.2216L64.2289 2.24415C60.6387 -0.399195 57.6193 0.0547713 55.8385 0.813297L5.86753 22.0922L2.91093 23.8162C1.113 24.862 0 26.7985 0 28.8902Z" fill="url(&quot;#paint1_linear_288_9328&quot;)"></path>
<defs>
<linearGradient id="paint0_linear_288_9328" x1="71.1459" y1="34.1956" x2="0.78519" y2="46.3184" gradientUnits="userSpaceOnUse">
<stop stop-color="#78000E"></stop>
<stop offset="1" stop-color="#FF3D00"></stop>
</linearGradient>
<linearGradient id="paint1_linear_288_9328" x1="48.7233" y1="3.8243" x2="109.314" y2="128.398" gradientUnits="userSpaceOnUse">
<stop stop-color="#B90015"></stop>
<stop offset="0.55" stop-color="#DB3500"></stop>
<stop offset="0.59" stop-color="#900101"></stop>
<stop offset="1" stop-color="#E71500"></stop>
</linearGradient>
<linearGradient id="paint0_linear_288_9328" x1="71.1459" y1="34.1956" x2="0.78519" y2="46.3184" gradientUnits="userSpaceOnUse">
<stop stop-color="#78000E"></stop>
<stop offset="1" stop-color="#FF3D00"></stop>
</linearGradient><linearGradient id="paint1_linear_288_9328" x1="48.7233" y1="3.8243" x2="109.314" y2="128.398" gradientUnits="userSpaceOnUse">
<stop stop-color="#B90015"></stop>
<stop offset="0.55" stop-color="#DB3500"></stop>
<stop offset="0.59" stop-color="#900101"></stop>
<stop offset="1" stop-color="#E71500"></stop>
</linearGradient></defs>
</svg>