<svg width="158" height="49" viewBox="0 0 158 49" fill="none" xmlns="http://www.w3.org/2000/svg" role="img">
<title>Proto Logo</title>
<path fill="#000" id="logo-text" d="M90.9259 27.9934C90.3304 27.3666 89.7379 26.7369 89.141 26.1145C89.0942 26.0694 89.0313 26.0432 88.9655 26.0403C85.1062 26.0374 81.2454 26.0374 77.3861 26.0403L77.2662 26.0374V29.7486H75.2253V20.4197C75.2283 19.2171 76.1295 18.2049 77.3305 18.0566C77.4768 18.0391 77.6246 18.0304 77.7709 18.0304C81.9813 18.0304 86.1917 18.0129 90.4007 18.0377C91.9148 18.0464 93.0954 18.7372 93.8664 20.0532C94.2292 20.6742 94.3302 21.3693 94.3229 22.0804C94.3258 23.1711 93.8869 24.2167 93.1057 24.9816C92.7107 25.3757 92.2235 25.668 91.6895 25.8353L94.2965 28.5809L92.8175 29.9799C92.1796 29.3095 91.5549 28.6536 90.9244 27.9934H90.9259ZM77.7343 20.0576C77.3978 20.0721 77.2662 20.2074 77.2662 20.536V23.8953C77.2662 23.9288 77.2691 23.9593 77.2735 24.0059H86.0059C87.4718 24.0059 88.9392 24.0131 90.405 24C91.0619 23.9942 91.6222 23.7586 91.9748 23.1624C92.2411 22.7014 92.3391 22.1619 92.2542 21.6369C92.2118 21.1643 91.9675 20.7324 91.5813 20.4517C91.1702 20.1754 90.6801 20.0358 90.1841 20.0532H77.8587C77.8177 20.0532 77.7753 20.0532 77.7343 20.0576ZM105.234 29.7574H98.9122C97.4317 29.7225 96.1735 28.671 95.8853 27.227C95.8502 27.0292 95.8326 26.8271 95.8312 26.6264C95.8282 24.7839 95.8282 22.9443 95.8312 21.1061C95.8692 19.5559 97.0323 18.2631 98.5771 18.0537C98.7234 18.0377 98.8712 18.0289 99.0175 18.0289H111.494C113.024 18.0391 114.33 19.1298 114.605 20.6262C114.636 20.8065 114.651 20.9898 114.649 21.173C114.652 22.9893 114.652 24.8071 114.649 26.6235C114.648 28.1533 113.539 29.4607 112.022 29.7225C111.867 29.7472 111.71 29.7588 111.554 29.7574C110.696 29.7574 109.839 29.7574 108.982 29.7574C107.732 29.7574 106.483 29.7574 105.234 29.7559V29.7574ZM97.8588 21.2341C97.8735 23.0053 97.8588 24.7766 97.8647 26.5464C97.8618 26.638 97.8691 26.7296 97.8852 26.8198C97.9949 27.3637 98.4835 27.7476 99.0409 27.7272H111.409C111.542 27.7302 111.675 27.7127 111.804 27.6778C112.309 27.5295 112.613 27.0859 112.614 26.4853C112.617 24.7548 112.617 23.0242 112.614 21.2966C112.629 21.0247 112.55 20.7571 112.393 20.5346C112.143 20.2088 111.745 20.03 111.334 20.0576C107.273 20.0634 103.21 20.0634 99.1492 20.0576C99.098 20.0576 99.0482 20.0649 98.997 20.062C98.9824 20.062 98.9678 20.062 98.9517 20.062C98.4265 20.062 97.8588 20.5549 97.8588 21.2341ZM148.583 29.7574H142.261C140.781 29.7225 139.523 28.671 139.234 27.227C139.199 27.0292 139.182 26.8271 139.18 26.6264C139.177 24.7839 139.177 22.9443 139.18 21.1061C139.218 19.5573 140.381 18.2631 141.926 18.0537C142.072 18.0377 142.22 18.0289 142.367 18.0289H154.843C156.373 18.0391 157.679 19.1298 157.954 20.6262C157.985 20.8065 158 20.9898 157.998 21.173C158.001 22.9893 158.001 24.8071 157.998 26.6235C157.997 28.1533 156.888 29.4607 155.371 29.7225C155.216 29.7472 155.059 29.7588 154.903 29.7574C154.064 29.7574 153.226 29.7574 152.388 29.7574C151.119 29.7574 149.85 29.7574 148.581 29.7574H148.583ZM141.208 21.2341C141.223 23.0053 141.208 24.7766 141.214 26.5464C141.211 26.638 141.218 26.7296 141.234 26.8198C141.344 27.3637 141.833 27.7476 142.39 27.7272H154.758C154.891 27.7302 155.024 27.7127 155.153 27.6778C155.658 27.5295 155.962 27.0859 155.962 26.4853C155.965 24.7548 155.965 23.0242 155.962 21.2966C155.976 21.0247 155.898 20.7571 155.741 20.5346C155.491 20.2088 155.093 20.03 154.682 20.0576C150.621 20.0634 146.558 20.0634 142.497 20.0576C142.447 20.0576 142.396 20.0649 142.346 20.062C142.331 20.062 142.317 20.062 142.301 20.062C141.776 20.062 141.208 20.5549 141.208 21.2341ZM54.9004 29.7559V20.808C54.9414 20.6306 54.9721 20.4517 55.0247 20.2772C55.3993 19.0571 56.4745 18.1802 57.7517 18.0522C57.9082 18.0377 58.0648 18.0289 58.2213 18.0289H70.4912C71.7947 18.0289 72.7485 18.6324 73.3805 19.7522C73.6146 20.1812 73.7331 20.664 73.7229 21.1526V24.1382C73.717 25.6753 72.5905 26.9827 71.0617 27.2226C70.8803 27.2517 70.696 27.2663 70.5131 27.2663H56.9441V29.753H54.9004V29.7559ZM57.6903 20.1449C57.2294 20.3295 56.9295 20.7745 56.9339 21.2675C56.9559 22.5342 56.9412 23.8008 56.9412 25.0674V25.2347H70.5468C70.7648 25.2376 70.9784 25.1736 71.1583 25.0514C71.5182 24.8115 71.7215 24.3985 71.6908 23.968C71.685 23.0911 71.6908 22.2142 71.6908 21.3388C71.6937 21.2108 71.682 21.0828 71.6572 20.9563C71.5357 20.4212 71.05 20.0474 70.4985 20.0634C66.3861 20.0634 62.2737 20.062 58.1599 20.0591H58.1379C57.9843 20.0591 57.8322 20.0881 57.6903 20.1449ZM125.898 29.7486V20.0591H116.158V18.0348H137.673V20.0547H127.939V29.7486H125.898Z"/>
<path d="M1.28602 5.88414L13.0282 0.928247C13.7118 0.641012 14.4982 0.966156 14.7835 1.65435C14.7835 1.65727 14.7849 1.65873 14.7864 1.66164C14.8544 1.82786 14.8892 2.00574 14.8892 2.18508V46.008C14.8979 47.1686 13.9696 48.1164 12.8168 48.1251C12.3678 48.128 11.9305 47.9866 11.5684 47.7183L0.858798 41.5231C0.31861 41.1236 0 40.4879 0 39.8128V7.83791C0 6.98496 0.505431 6.21511 1.28602 5.88414Z" fill="url(#paint0_linear_82_9025)"/>
<path d="M0 7.27214V8.27819C0.0434468 7.71247 0.535843 7.28964 1.09775 7.33338C1.26865 7.3465 1.43519 7.40337 1.57857 7.49814L17.593 18.034C18.2143 18.5589 19.1093 19.0706 19.1093 20.2896V32.4321C19.1093 33.9281 20.7067 35.0581 22.1072 34.364L32.8182 29.0568C33.5452 28.6923 34.0029 27.9428 34 27.1249V13.4003C34 12.4876 33.3773 11.6463 32.6198 11.1622L16.2969 0.511197C15.3859 -0.159503 14.6198 -0.0443176 14.168 0.148144L1.48878 5.54728L0.738595 5.98469C0.282404 6.25006 0 6.74142 0 7.27214Z" fill="url(#paint1_linear_82_9025)"/>
<defs>
<linearGradient id="paint0_linear_82_9025" x1="18.0519" y1="8.61823" x2="0.199227" y2="11.6942" gradientUnits="userSpaceOnUse">
<stop stop-color="#78000E"/>
<stop offset="1" stop-color="#FF3D00"/>
</linearGradient>
<linearGradient id="paint1_linear_82_9025" x1="12.3626" y1="0.91213" x2="27.7365" y2="32.5205" gradientUnits="userSpaceOnUse">
<stop stop-color="#B90015"/>
<stop offset="0.55" stop-color="#DB3500"/>
<stop offset="0.59" stop-color="#900101"/>
<stop offset="1" stop-color="#E71500"/>
</linearGradient>
</defs>
</svg>